<svg width="36" height="36" viewBox="0 0 36 36" fill="none" xmlns="http://www.w3.org/2000/svg">
<path fill-rule="evenodd" clip-rule="evenodd" d="M17.993 4.00781C16.1282 4.00781 14.6165 5.51955 14.6165 7.38438V11.4853H21.3696V7.38439C21.3696 5.51956 19.8579 4.00781 17.993 4.00781ZM17.993 5.42162C17.0017 5.42162 16.1981 6.22523 16.1981 7.21653V9.31037H19.7879V7.21653C19.7879 6.22523 18.9843 5.42162 17.993 5.42162Z" fill="black"/>
<path d="M6.98978 21.8423C7.0673 21.0994 7.69351 20.5352 8.44043 20.5352C9.24594 20.5352 9.89894 21.1882 9.89894 21.9937V25.5354C9.89894 26.4427 9.16343 27.1782 8.25614 27.1782C7.2814 27.1782 6.52104 26.3344 6.6222 25.3649L6.98978 21.8423Z" fill="white"/>
<path fill-rule="evenodd" clip-rule="evenodd" d="M10.4615 21.9937V25.5354C10.4615 26.7534 9.47415 27.7407 8.2562 27.7407C6.9477 27.7407 5.927 26.608 6.0628 25.3066L6.43038 21.7839C6.53779 20.7545 7.40551 19.9727 8.44048 19.9727C9.55666 19.9727 10.4615 20.8775 10.4615 21.9937ZM8.44048 20.5352C7.69357 20.5352 7.06736 21.0994 6.98984 21.8423L6.62226 25.3649C6.5211 26.3344 7.28146 27.1782 8.2562 27.1782C9.16349 27.1782 9.899 26.4427 9.899 25.5354V21.9937C9.899 21.1882 9.246 20.5352 8.44048 20.5352Z" fill="black"/>
<path d="M29.0101 21.8423C28.9326 21.0994 28.3064 20.5352 27.5595 20.5352C26.7539 20.5352 26.1009 21.1882 26.1009 21.9937V25.5354C26.1009 26.4427 26.8364 27.1782 27.7437 27.1782C28.7185 27.1782 29.4788 26.3344 29.3777 25.3649L29.0101 21.8423Z" fill="white"/>
<path fill-rule="evenodd" clip-rule="evenodd" d="M25.5386 21.9937V25.5354C25.5386 26.7534 26.526 27.7407 27.7439 27.7407C29.0524 27.7407 30.0731 26.608 29.9373 25.3066L29.5697 21.7839C29.4623 20.7545 28.5946 19.9727 27.5596 19.9727C26.4435 19.9727 25.5386 20.8775 25.5386 21.9937ZM27.5596 20.5352C28.3066 20.5352 28.9328 21.0994 29.0103 21.8423L29.3779 25.3649C29.479 26.3344 28.7187 27.1782 27.7439 27.1782C26.8366 27.1782 26.1011 26.4427 26.1011 25.5354V21.9937C26.1011 21.1882 26.7541 20.5352 27.5596 20.5352Z" fill="black"/>
<path d="M9.22868 14.7537C9.57131 10.6744 12.9823 7.53784 17.0761 7.53784H18.9604C23.0542 7.53784 26.4652 10.6744 26.8078 14.7537L27.7949 26.5059C28.0429 29.4586 25.7132 31.9921 22.7501 31.9921H13.2864C10.3233 31.9921 7.99363 29.4586 8.24163 26.5059L9.22868 14.7537Z" fill="white"/>
<path fill-rule="evenodd" clip-rule="evenodd" d="M17.0761 6.97534H18.9605C23.3466 6.97534 27.0013 10.3359 27.3684 14.7067L28.3554 26.4588C28.631 29.7396 26.0425 32.5546 22.7502 32.5546H13.2864C9.9941 32.5546 7.40559 29.7396 7.68114 26.4588L8.6682 14.7067C9.03529 10.3359 12.69 6.97534 17.0761 6.97534ZM17.0761 7.53784C12.9824 7.53784 9.57135 10.6744 9.22872 14.7537L8.24167 26.5059C7.99367 29.4586 10.3233 31.9921 13.2864 31.9921H22.7502C25.7132 31.9921 28.0429 29.4586 27.7949 26.5059L26.8078 14.7537C26.4652 10.6744 23.0542 7.53784 18.9605 7.53784H17.0761Z" fill="black"/>
<path d="M14.2728 12.9175C14.2728 12.2962 14.7765 11.7925 15.3978 11.7925H20.6391C21.2604 11.7925 21.7641 12.2962 21.7641 12.9175V14.0415C21.7641 14.6629 21.2604 15.1665 20.6391 15.1665H15.3978C14.7765 15.1665 14.2728 14.6629 14.2728 14.0415V12.9175Z" fill="black"/>
<path d="M12.3862 29.0051C12.8993 29.6886 13.7165 30.1308 14.637 30.1308H23.3892C24.9425 30.1308 26.2017 28.8716 26.2017 27.3183V23.9575C26.2017 23.0371 25.7596 22.2199 25.0761 21.7068C25.1403 21.9159 25.1748 22.1379 25.1748 22.3681V26.8539C25.1748 28.0965 24.1674 29.1039 22.9248 29.1039H13.0475C12.8174 29.1039 12.5953 29.0693 12.3862 29.0051Z" fill="black"/>
<path fill-rule="evenodd" clip-rule="evenodd" d="M13.0476 19.5557H22.9249C24.4782 19.5557 25.7374 20.8149 25.7374 22.3682V26.854C25.7374 28.4073 24.4782 29.6665 22.9249 29.6665H13.0476C11.4943 29.6665 10.2351 28.4073 10.2351 26.854V22.3682C10.2351 20.8149 11.4943 19.5557 13.0476 19.5557ZM13.0476 20.1182C11.805 20.1182 10.7976 21.1255 10.7976 22.3682V26.854C10.7976 28.0966 11.805 29.104 13.0476 29.104H22.9249C24.1675 29.104 25.1749 28.0966 25.1749 26.854V22.3682C25.1749 21.1255 24.1675 20.1182 22.9249 20.1182H13.0476Z" fill="black"/>
<path fill-rule="evenodd" clip-rule="evenodd" d="M10.4842 23.552C10.4842 23.3967 10.6101 23.2708 10.7654 23.2708H25.2711C25.4264 23.2708 25.5524 23.3967 25.5524 23.552C25.5524 23.7073 25.4264 23.8333 25.2711 23.8333H10.7654C10.6101 23.8333 10.4842 23.7073 10.4842 23.552Z" fill="black"/>
<path d="M21.1845 23.0149C21.2164 22.8027 21.4232 22.644 21.668 22.644H21.7571C22.0019 22.644 22.2087 22.8027 22.2405 23.0149L22.5477 25.0626C22.6138 25.5035 22.2212 25.8948 21.7125 25.8948C21.2039 25.8948 20.8113 25.5035 20.8774 25.0626L21.1845 23.0149Z" fill="black"/>
</svg>
