<svg width="36" height="36" viewBox="0 0 36 36" fill="none" xmlns="http://www.w3.org/2000/svg">
<path d="M8.19702 20.4124C8.19702 19.4804 8.95254 18.7249 9.88452 18.7249H30.6409C30.9365 18.7249 31.0891 19.2176 30.8776 19.4241C30.3487 19.9402 29.792 20.7431 29.792 21.8357C29.792 22.9634 30.3851 23.7995 30.9285 24.3288C31.1378 24.5327 30.9884 25.0044 30.6963 25.0044H9.88452C8.95254 25.0044 8.19702 24.2489 8.19702 23.3169V20.4124Z" fill="black"/>
<path d="M20.0173 8.56675C20.0173 10.1882 18.8143 12.0899 16.4084 12.0899C14.0024 12.0899 12.7994 10.1882 12.7994 8.56675C12.7994 6.81861 13.9387 6.4392 15.1735 6.47608C15.6803 6.49121 16.4084 6.87705 16.4084 6.87705C16.4084 6.87705 17.1364 6.49121 17.6432 6.47608C18.878 6.4392 20.0173 6.80516 20.0173 8.56675Z" fill="white" stroke="black" stroke-width="0.5625" stroke-linecap="round" stroke-linejoin="round"/>
<path d="M17.4761 11.0374C17.852 10.8921 18.673 10.3216 18.9497 9.20288" stroke="black" stroke-width="0.5625" stroke-linecap="round" stroke-linejoin="round"/>
<path d="M16.5016 6.7599C15.7601 6.7669 15.0819 6.26398 14.9028 4.82935C15.6093 5.10473 16.7599 4.9757 16.5016 6.7599Z" fill="white" stroke="black" stroke-width="0.5625" stroke-linecap="round" stroke-linejoin="round"/>
<path d="M16.5137 6.73678C16.8445 6.32326 17.3407 5.0451 16.9122 4.11279" stroke="black" stroke-width="0.5625" stroke-linecap="round" stroke-linejoin="round"/>
<path d="M14.4238 9.04778C14.2694 8.75847 14.2259 8.28124 14.3835 7.91433" stroke="black" stroke-width="0.5625" stroke-linecap="round" stroke-linejoin="round"/>
<path d="M6.19434 14.0923C6.19434 13.1603 6.94986 12.4048 7.88184 12.4048H27.9992C27.9992 12.4048 26.4414 13.4103 26.2792 15.3106C26.117 17.2108 27.9992 18.2031 27.9992 18.2031H7.88184C6.94986 18.2031 6.19434 17.4476 6.19434 16.5156V14.0923Z" fill="white"/>
<path fill-rule="evenodd" clip-rule="evenodd" d="M28.3053 12.8767C28.3051 12.8768 28.3048 12.877 28.3046 12.8772L28.2991 12.8809C28.292 12.8858 28.2796 12.8944 28.2628 12.9066C28.229 12.9312 28.1774 12.9703 28.1136 13.0235C27.9854 13.1304 27.8106 13.2922 27.6311 13.5064C27.271 13.9361 26.908 14.5568 26.8396 15.3584C26.7766 16.0967 27.105 16.6709 27.4908 17.087C27.6831 17.2943 27.8814 17.4526 28.0319 17.5588C28.1067 17.6115 28.1681 17.6504 28.2091 17.6751C28.2296 17.6874 28.2448 17.6962 28.2539 17.7013C28.2584 17.7038 28.2614 17.7055 28.2627 17.7062L28.2622 17.7059L28.2619 17.7058C28.2624 17.706 28.2628 17.7062 28.2633 17.7065C28.4909 17.8275 28.6072 18.0879 28.5452 18.3383C28.4831 18.5893 28.2578 18.7656 27.9992 18.7656H7.88184C6.6392 18.7656 5.63184 17.7583 5.63184 16.5156V14.0923C5.63184 12.8496 6.6392 11.8423 7.88184 11.8423H27.9992C28.2486 11.8423 28.4682 12.0065 28.5387 12.2458C28.6091 12.4843 28.5143 12.7407 28.306 12.8762C28.3058 12.8764 28.3056 12.8765 28.3053 12.8767ZM27.2475 17.6406C27.6391 18.0133 27.9992 18.2031 27.9992 18.2031H7.88184C6.94986 18.2031 6.19434 17.4476 6.19434 16.5156V14.0923C6.19434 13.1603 6.94986 12.4048 7.88184 12.4048H27.9992C27.9992 12.4048 27.704 12.5953 27.3572 12.9673C26.9074 13.4498 26.3707 14.2375 26.2792 15.3106C26.1879 16.3796 26.7438 17.1613 27.2475 17.6406Z" fill="black"/>
<path d="M4.75073 27.2139C4.75073 26.2819 5.50625 25.5264 6.43823 25.5264H26.5556C26.5556 25.5264 25.1427 26.4097 24.908 28.3886C24.6734 30.3676 26.5556 31.3247 26.5556 31.3247H6.43823C5.50625 31.3247 4.75073 30.5692 4.75073 29.6372V27.2139Z" fill="white"/>
<path fill-rule="evenodd" clip-rule="evenodd" d="M26.8552 26.0024C26.8551 26.0025 26.8552 26.0024 26.8552 26.0024C26.8549 26.0026 26.8546 26.0028 26.8542 26.003C26.8542 26.003 26.8543 26.003 26.8542 26.003M25.9276 26.0889C26.2662 25.7073 26.5556 25.5264 26.5556 25.5264H6.43823C5.50625 25.5264 4.75073 26.2819 4.75073 27.2139V29.6372C4.75073 30.5692 5.50625 31.3247 6.43823 31.3247H26.5556C26.5556 31.3247 26.1905 31.1391 25.8019 30.7622C25.3083 30.2834 24.7767 29.496 24.908 28.3886C25.0365 27.3054 25.518 26.5504 25.9276 26.0889ZM26.811 30.8235C26.8115 30.8238 26.8121 30.8241 26.8126 30.8244C26.8128 30.8245 26.8129 30.8245 26.8126 30.8244C27.0432 30.9428 27.1631 31.2036 27.1026 31.4558C27.042 31.7088 26.8158 31.8872 26.5556 31.8872H6.43823C5.19559 31.8872 4.18823 30.8799 4.18823 29.6372V27.2139C4.18823 25.9712 5.19559 24.9639 6.43823 24.9639H26.5556C26.8065 24.9639 27.0271 25.1301 27.0963 25.3713C27.1652 25.6114 27.0674 25.868 26.8566 26.0015C26.8562 26.0018 26.8556 26.0022 26.8552 26.0024M26.8123 30.8242C26.8111 30.8236 26.8083 30.8221 26.804 30.8198C26.7953 30.815 26.7806 30.8068 26.7606 30.795C26.7206 30.7715 26.6604 30.7341 26.5872 30.6831C26.4398 30.5801 26.2462 30.4257 26.0605 30.221C25.6917 29.8141 25.3741 29.2352 25.4666 28.4549C25.5689 27.5925 25.926 26.9745 26.2554 26.5713C26.4207 26.369 26.5784 26.2217 26.6918 26.127C26.7484 26.0797 26.7934 26.046 26.8221 26.0254C26.8365 26.0151 26.8467 26.0081 26.8522 26.0045L26.8552 26.0024L26.8546 26.0028L26.8542 26.003M26.8123 30.8242L26.812 30.824L26.8113 30.8237" fill="black"/>
<path d="M9.8822 20.4246H22.9946" stroke="white" stroke-width="0.5625" stroke-linecap="round" stroke-linejoin="round"/>
<path d="M9.8822 21.8647H17.0399" stroke="white" stroke-width="0.5625" stroke-linecap="round" stroke-linejoin="round"/>
<path d="M21.6414 12.2117H23.972V15.6599C23.972 15.9105 23.6691 16.0359 23.4919 15.8588L23.0056 15.3724C22.8957 15.2626 22.7177 15.2626 22.6078 15.3724L22.1215 15.8588C21.9443 16.0359 21.6414 15.9105 21.6414 15.6599V12.2117Z" fill="black"/>
<path d="M6.03271 26.9854H19.1451" stroke="black" stroke-width="0.5625" stroke-linecap="round" stroke-linejoin="round"/>
<path d="M6.03284 28.4255H13.1905" stroke="black" stroke-width="0.5625" stroke-linecap="round" stroke-linejoin="round"/>
<path d="M7.7168 13.9087H18.724" stroke="black" stroke-width="0.5625" stroke-linecap="round" stroke-linejoin="round"/>
</svg>
