<svg width="62" height="62" viewBox="0 0 62 62" fill="none" xmlns="http://www.w3.org/2000/svg">
<path d="M20.04 42.9285C19.8484 42.9284 19.6611 42.8716 19.5019 42.7651C19.3426 42.6587 19.2184 42.5074 19.1451 42.3304C19.0718 42.1534 19.0527 41.9587 19.09 41.7708C19.1274 41.5829 19.2196 41.4103 19.355 41.2748L41.275 19.3544C41.4567 19.1728 41.7031 19.0708 41.96 19.0708C42.217 19.0708 42.4634 19.173 42.645 19.3547C42.8267 19.5364 42.9287 19.7828 42.9286 20.0397C42.9286 20.2967 42.8265 20.5431 42.6448 20.7247L20.7249 42.6451C20.5431 42.8266 20.2968 42.9285 20.04 42.9285Z" fill="black"/>
<path d="M41.96 42.9287C41.7031 42.9288 41.4568 42.8269 41.2751 42.6454L19.3552 20.725C19.2652 20.635 19.1938 20.5282 19.1451 20.4107C19.0964 20.2932 19.0713 20.1672 19.0713 20.04C19.0713 19.9128 19.0963 19.7868 19.145 19.6692C19.1936 19.5517 19.265 19.4449 19.3549 19.3549C19.4449 19.2649 19.5516 19.1936 19.6692 19.1449C19.7867 19.0961 19.9127 19.0711 20.0399 19.071C20.1671 19.071 20.2931 19.0961 20.4106 19.1447C20.5282 19.1934 20.635 19.2647 20.725 19.3547L42.6449 41.2751C42.7803 41.4105 42.8725 41.5831 42.9099 41.771C42.9473 41.9589 42.9281 42.1537 42.8548 42.3307C42.7815 42.5077 42.6573 42.6589 42.4981 42.7654C42.3388 42.8718 42.1515 42.9287 41.96 42.9287Z" fill="black"/>
</svg>
