<svg width="32" height="32" viewBox="0 0 32 32" fill="none" xmlns="http://www.w3.org/2000/svg">
<path d="M16 20.25C15.873 20.25 15.7507 20.2017 15.658 20.1148L7.65801 12.6148C7.56127 12.5241 7.50453 12.3986 7.50026 12.2661C7.49599 12.1336 7.54455 12.0047 7.63526 11.908C7.72596 11.8113 7.85138 11.7545 7.98392 11.7503C8.11646 11.746 8.24527 11.7946 8.34201 11.8853L16 19.0648L23.658 11.8853C23.7059 11.8403 23.7622 11.8053 23.8236 11.7821C23.8851 11.759 23.9505 11.7481 24.0161 11.7503C24.0817 11.7524 24.1463 11.7674 24.2061 11.7945C24.2659 11.8215 24.3198 11.8601 24.3648 11.908C24.4097 11.9559 24.4447 12.0122 24.4679 12.0736C24.491 12.1351 24.5019 12.2005 24.4998 12.2661C24.4976 12.3317 24.4826 12.3963 24.4556 12.4561C24.4285 12.5159 24.3899 12.5698 24.342 12.6148L16.342 20.1148C16.2493 20.2017 16.127 20.25 16 20.25Z" fill="black"/>
</svg>
