<svg width="36" height="36" viewBox="0 0 36 36" fill="none" xmlns="http://www.w3.org/2000/svg">
<path fill-rule="evenodd" clip-rule="evenodd" d="M10.4177 18.7467L17.0006 21.2185C17.5133 21.4109 18.0786 21.4099 18.5905 21.2154L25.0205 18.773L25.0204 23.4697C25.0205 23.4741 25.0205 23.4785 25.0205 23.483C25.0205 24.93 21.7516 26.103 17.7191 26.103C13.6867 26.103 10.4177 24.93 10.4177 23.483C10.4177 23.4815 10.4177 23.48 10.4177 23.4785C10.4177 23.4756 10.4176 23.4726 10.4177 23.4697V18.7467Z" fill="black"/>
<path d="M30.9557 22.2765C31.1753 21.8732 31.4239 21.3493 31.6341 20.8836C31.7978 20.5209 32.2638 20.441 32.4642 20.7847C32.8153 21.3865 33.0468 22.1046 33.162 22.5831C33.1986 22.735 33.1663 22.8998 33.0495 23.0037C32.554 23.4442 31.7892 23.3262 31.1951 23.1009C30.8765 22.9801 30.7927 22.5758 30.9557 22.2765Z" fill="white"/>
<path fill-rule="evenodd" clip-rule="evenodd" d="M32.0738 20.8478C32.0111 20.8565 31.9339 20.9028 31.8904 20.9993C31.6792 21.4671 31.4273 21.9985 31.2026 22.411C31.1551 22.4983 31.1448 22.6005 31.1668 22.6841C31.1877 22.7638 31.2332 22.8145 31.2948 22.8379C31.5729 22.9433 31.8783 23.0184 32.1615 23.0207C32.4428 23.0229 32.6822 22.9539 32.8626 22.7935C32.8828 22.7756 32.9074 22.7274 32.8885 22.6489C32.7769 22.1855 32.5536 21.4961 32.2213 20.9264C32.181 20.8574 32.1281 20.8404 32.0738 20.8478ZM31.9969 20.2906C32.2666 20.2534 32.5469 20.3683 32.7071 20.643L32.4642 20.7847M31.9969 20.2906C31.7356 20.3267 31.4979 20.5016 31.3777 20.7678L31.9969 20.2906ZM32.7071 20.643C33.077 21.2769 33.3165 22.0236 33.4354 22.5172C33.4896 22.7426 33.4499 23.024 33.2364 23.2138C32.9213 23.494 32.5305 23.5861 32.157 23.5832C31.7854 23.5802 31.4114 23.4837 31.0954 23.3639C30.5675 23.1637 30.4918 22.5401 30.7086 22.142C30.9233 21.7479 31.1684 21.2315 31.3777 20.7678" fill="black"/>
<path fill-rule="evenodd" clip-rule="evenodd" d="M31.5708 20.1401C31.691 20.0418 31.8682 20.0595 31.9666 20.1797C32.063 20.2976 32.1126 20.4708 32.1437 20.615C32.1779 20.774 32.2015 20.9599 32.2178 21.1468C32.2504 21.5216 32.256 21.9271 32.2513 22.1875C32.2484 22.3428 32.1203 22.4664 31.965 22.4635C31.8096 22.4607 31.686 22.3325 31.6889 22.1772C31.6933 21.9307 31.6879 21.5457 31.6574 21.1956C31.6421 21.0202 31.6211 20.8602 31.5938 20.7335C31.5802 20.6702 31.566 20.6201 31.5522 20.583C31.5392 20.548 31.5305 20.5353 31.5307 20.5352C31.5307 20.5352 31.5309 20.5354 31.5312 20.5359C31.4329 20.4157 31.4506 20.2385 31.5708 20.1401Z" fill="black"/>
<path fill-rule="evenodd" clip-rule="evenodd" d="M31.9147 14.7111C32.1477 14.7111 32.3365 14.8999 32.3365 15.1329V19.8049C32.3365 20.0379 32.1477 20.2268 31.9147 20.2268C31.6817 20.2268 31.4928 20.0379 31.4928 19.8049V15.1329C31.4928 14.8999 31.6817 14.7111 31.9147 14.7111Z" fill="black"/>
<path d="M33.0758 19.9706C33.0758 20.6119 32.556 21.1317 31.9147 21.1317C31.2735 21.1317 30.7537 20.6119 30.7537 19.9706C30.7537 19.3294 31.2735 18.8096 31.9147 18.8096C32.556 18.8096 33.0758 19.3294 33.0758 19.9706Z" fill="black"/>
<path d="M16.9186 9.30929L3.28643 14.7413C3.03448 14.8416 3.03806 15.1995 3.29196 15.2948L16.9631 20.4281C17.5041 20.6312 18.1007 20.6301 18.6409 20.4249L32.1475 15.2945C32.3999 15.1986 32.4035 14.8427 32.153 14.7417L18.6852 9.31282C18.1187 9.08445 17.486 9.08319 16.9186 9.30929Z" fill="black"/>
<path fill-rule="evenodd" clip-rule="evenodd" d="M28.1294 15.617C28.1826 15.763 28.1075 15.9244 27.9616 15.9777L18.3412 19.4885C18.1953 19.5418 18.0339 19.4667 17.9806 19.3207C17.9274 19.1748 18.0025 19.0134 18.1484 18.9601L27.7687 15.4492C27.9147 15.396 28.0761 15.4711 28.1294 15.617Z" fill="white"/>
<path fill-rule="evenodd" clip-rule="evenodd" d="M5.50318 14.966C5.55668 14.8201 5.71826 14.7453 5.86409 14.7988L9.07926 15.9782C9.22509 16.0317 9.29994 16.1933 9.24645 16.3391C9.19296 16.4849 9.03137 16.5598 8.88555 16.5063L5.67037 15.3269C5.52454 15.2734 5.44969 15.1118 5.50318 14.966Z" fill="white"/>
</svg>
