<svg width="237" height="237" viewBox="0 0 237 237" fill="none" xmlns="http://www.w3.org/2000/svg">
<path d="M118.224 123.766C109.09 123.766 100.162 121.057 92.5671 115.983C84.9727 110.908 79.0535 103.696 75.5581 95.2574C72.0628 86.8189 71.1483 77.5334 72.9302 68.5751C74.7121 59.6168 79.1104 51.3881 85.569 44.9295C92.0275 38.471 100.256 34.0726 109.215 32.2907C118.173 30.5088 127.458 31.4233 135.897 34.9187C144.335 38.414 151.548 44.3332 156.622 51.9277C161.697 59.5221 164.405 68.4508 164.405 77.5846C164.392 89.8284 159.522 101.567 150.864 110.225C142.206 118.882 130.468 123.752 118.224 123.766ZM118.224 38.7923C110.552 38.7923 103.052 41.0675 96.6722 45.33C90.2929 49.5926 85.3208 55.6511 82.3847 62.7395C79.4486 69.8278 78.6804 77.6276 80.1772 85.1526C81.674 92.6776 85.3686 99.5897 90.7938 105.015C96.219 110.44 103.131 114.135 110.656 115.631C118.181 117.128 125.981 116.36 133.069 113.424C140.158 110.488 146.216 105.516 150.479 99.1364C154.741 92.7571 157.016 85.257 157.016 77.5846C157.005 67.2999 152.914 57.4397 145.641 50.1673C138.369 42.8949 128.509 38.8041 118.224 38.7923Z" fill="black"/>
<path d="M190.267 205.045H46.1813C45.2015 205.045 44.2618 204.656 43.5689 203.963C42.8761 203.27 42.4868 202.33 42.4868 201.35V185.957C42.4868 161.851 58.4674 142.238 78.1092 142.238H158.339C177.981 142.238 193.961 161.851 193.961 185.957V201.35C193.961 202.33 193.572 203.27 192.879 203.963C192.186 204.656 191.247 205.045 190.267 205.045ZM49.8758 197.656H186.572V185.957C186.572 165.924 173.908 149.627 158.339 149.627H78.1092C62.5406 149.627 49.8758 165.924 49.8758 185.957V197.656Z" fill="black"/>
</svg>
